# xmcd
#
# Track frame offsets:
#	150
#	9763
#	26027
#	37235
#	53746
#	67112
#	83912
#	100372
#	118260
#	132864
#	148067
#	167470
#	186278
#	193775
#	208666
#	225589
#	242089
#	259856
#
# Disc length: 3701 seconds
#
# Revision: 0
# Processed by: cddbd v1.5.1PL2 Copyright (c) Steve Scherf et al.
# Submitted via: dBpowerAMP V4.0
#
DISCID=050e7312
DTITLE=Various Artist - Learn How To Love
DYEAR=2005
DGENRE=R&B
TTITLE0=When The Smoke Settles (Intro) - K. Young
TTITLE1=Ridin' - K. Young
TTITLE2=Slow Down - K. Young
TTITLE3=Twista - K. Young
TTITLE4=Without You - K. Young
TTITLE5=Together - K. Young feat. One-2
TTITLE6=When The Smoke Settles - K. Young
TTITLE7=I Wanna Be - K. Young
TTITLE8=Give It All To You - K. Young
TTITLE9=That Girl - K. Young
TTITLE10=Thank You - K. Young
TTITLE11=What You Waitin' For - K. Young
TTITLE12=Learn How To Love (Interlude) - K. Young
TTITLE13=Learn How To Love - K. Young
TTITLE14=Father - K. Young feat. One-2
TTITLE15=Take It Easy - K. Young feat. Crooked I
TTITLE16=Look At Her - K. Young
TTITLE17=Together (Reggaeton Remix) - K. Young feat. R. Luna
EXTD=
EXTT0=
EXTT1=
EXTT2=
EXTT3=
EXTT4=
EXTT5=
EXTT6=
EXTT7=
EXTT8=
EXTT9=
EXTT10=
EXTT11=
EXTT12=
EXTT13=
EXTT14=
EXTT15=
EXTT16=
EXTT17=
PLAYORDER=
